Coordinates
version=1
nRows=31
nColumns=34
inDegrees=no

Units are S.I. units (second, meters, Newtons, ...)
If the header above contains a line with 'inDegrees', this indicates whether rotational values are in degrees (yes) or radians (no).

endheader
time	pelvis_tilt	pelvis_list	pelvis_rotation	pelvis_tx	pelvis_ty	pelvis_tz	hip_flexion_r	hip_adduction_r	hip_rotation_r	knee_angle_r	ankle_angle_r	subtalar_angle_r	mtp_angle_r	hip_flexion_l	hip_adduction_l	hip_rotation_l	knee_angle_l	ankle_angle_l	subtalar_angle_l	mtp_angle_l	lumbar_extension	lumbar_bending	lumbar_rotation	arm_flex_r	arm_add_r	arm_rot_r	elbow_flex_r	pro_sup_r	arm_flex_l	arm_add_l	arm_rot_l	elbow_flex_l	pro_sup_l
1.17	-0.0145488	0.0372664	0.0132415	1.11045	0.942485	-0.244773	0.484759	-0.0906044	-0.330526	0.148724	0.204399	0.264645	-0.0183397	-0.131217	0.0206603	-0.42007	0.247185	0.459006	0.605818	-0.0183421	-0.228275	-0.16615	-0.0794335	-0.00676623	-0.243812	0.283521	0.646143	1.72106	0.195911	-0.34092	0.210204	0.647509	1.69516
1.18	-0.0164939	0.033406	0.0167393	1.12111	0.940448	-0.245708	0.484916	-0.0819635	-0.345704	0.118392	0.207282	0.284659	-0.0183323	-0.140359	0.0146059	-0.420833	0.250872	0.465907	0.612945	-0.0183346	-0.225819	-0.152617	-0.0822253	-0.0112739	-0.244884	0.27525	0.643743	1.72205	0.195139	-0.339556	0.211364	0.649713	1.69635
1.19	-0.0184125	0.0296169	0.0206354	1.13198	0.938375	-0.246669	0.485605	-0.0742064	-0.357681	0.0955003	0.209781	0.297088	-0.0183249	-0.149559	0.00871892	-0.419504	0.254753	0.471944	0.617557	-0.0183272	-0.223042	-0.138908	-0.0852104	-0.0160924	-0.246107	0.266855	0.64123	1.72332	0.193437	-0.337569	0.211317	0.652023	1.6972
1.2	-0.0201863	0.0260907	0.0249201	1.14309	0.936276	-0.247673	0.486997	-0.0679798	-0.366954	0.0811369	0.212376	0.303258	-0.0183174	-0.159144	0.00329344	-0.41625	0.258456	0.476936	0.620193	-0.0183198	-0.220028	-0.12521	-0.0884741	-0.0212071	-0.247482	0.25831	0.638569	1.72482	0.190726	-0.334933	0.210003	0.654418	1.69786
1.21	-0.0217292	0.0229239	0.0295448	1.15443	0.934156	-0.248729	0.489201	-0.0636647	-0.373943	0.0758767	0.215193	0.304606	-0.01831	-0.16936	-0.00152917	-0.411408	0.2617	0.480763	0.621509	-0.0183124	-0.216827	-0.111614	-0.0920574	-0.0265873	-0.249014	0.249619	0.63573	1.72644	0.186927	-0.331644	0.207431	0.656888	1.6985
1.22	-0.0230005	0.0200863	0.034422	1.16602	0.932015	-0.249834	0.492247	-0.0612936	-0.378795	0.0796592	0.217882	0.302255	-0.0183026	-0.180337	-0.00579671	-0.405412	0.264344	0.483375	0.622139	-0.018305	-0.213453	-0.0980929	-0.0959451	-0.0321821	-0.250719	0.240811	0.632687	1.72802	0.181973	-0.327722	0.203697	0.659428	1.69923
1.23	-0.0240058	0.0174127	0.0394296	1.17785	0.929845	-0.250975	0.496093	-0.0605316	-0.381294	0.0917821	0.219609	0.296711	-0.0182952	-0.192066	-0.00974751	-0.398725	0.266421	0.484794	0.622569	-0.0182976	-0.209891	-0.0844807	-0.100059	-0.0379181	-0.25262	0.231932	0.629407	1.72941	0.175828	-0.323208	0.199004	0.662039	1.7001
1.24	-0.0247764	0.0146004	0.044413	1.18992	0.927678	-0.252117	0.500642	-0.060734	-0.3809	0.111016	0.219178	0.287766	-0.0182877	-0.204411	-0.0137703	-0.391762	0.268128	0.48509	0.623052	-0.0182902	-0.206111	-0.0705054	-0.104262	-0.043698	-0.25475	0.223044	0.625851	1.73044	0.168496	-0.318156	0.193645	0.664716	1.70104
1.25	-0.0253603	0.0112912	0.0491984	1.20222	0.925523	-0.253231	0.505782	-0.0610528	-0.376924	0.135824	0.215268	0.274623	-0.0182803	-0.217137	-0.0183395	-0.384822	0.269799	0.484345	0.623552	-0.0182828	-0.202101	-0.0558109	-0.108364	-0.0494009	-0.257153	0.214213	0.621975	1.73097	0.160031	-0.312623	0.187969	0.667437	1.70193
1.26	-0.0257993	0.00711847	0.053602	1.21471	0.923392	-0.254288	0.511407	-0.0605979	-0.368774	0.164625	0.206752	0.256223	-0.0182729	-0.229962	-0.0239195	-0.378035	0.271854	0.482608	0.623728	-0.0182753	-0.197892	-0.0400251	-0.112147	-0.0548856	-0.259878	0.205507	0.617734	1.73095	0.15054	-0.306652	0.182324	0.670152	1.70259
1.27	-0.0261079	0.00177174	0.0574481	1.22739	0.921304	-0.255261	0.517432	-0.0585959	-0.356185	0.196039	0.192997	0.231638	-0.0182655	-0.242602	-0.0308742	-0.371334	0.274743	0.479848	0.622961	-0.0182679	-0.19358	-0.0228284	-0.115397	-0.0599975	-0.262976	0.196989	0.613091	1.73038	0.14017	-0.300265	0.176998	0.672779	1.70284
1.28	-0.0262595	-0.00495393	0.0605915	1.2402	0.919285	-0.256136	0.523776	-0.0545082	-0.339362	0.229028	0.174087	0.200429	-0.018258	-0.254803	-0.0394062	-0.364462	0.278911	0.475921	0.620421	-0.0182605	-0.18933	-0.00400912	-0.117938	-0.0645763	-0.266489	0.188719	0.608029	1.72939	0.129103	-0.293461	0.172171	0.675197	1.7026
1.29	-0.0261852	-0.0131348	0.062942	1.25312	0.91737	-0.256902	0.530327	-0.0480775	-0.318983	0.262907	0.150884	0.162862	-0.0182506	-0.266339	-0.0495438	-0.357025	0.284796	0.470562	0.615187	-0.0182531	-0.185369	0.0165079	-0.119666	-0.0684663	-0.270442	0.180749	0.602562	1.72814	0.117535	-0.286224	0.167904	0.677265	1.70186
1.3	-0.025786	-0.0227259	0.0644871	1.26611	0.915595	-0.25756	0.536898	-0.0393058	-0.296102	0.29725	0.124945	0.11994	-0.0182432	-0.276992	-0.0611774	-0.348571	0.292841	0.463401	0.606385	-0.0182457	-0.181951	0.0386633	-0.120576	-0.0715254	-0.274828	0.17313	0.596736	1.72684	0.105662	-0.278546	0.164169	0.678828	1.70074
1.31	-0.0249553	-0.0335915	0.0653086	1.27914	0.913998	-0.258118	0.543208	-0.028388	-0.27199	0.331739	0.0982837	0.0732774	-0.0182357	-0.286506	-0.0741269	-0.338692	0.30354	0.453991	0.593351	-0.0182383	-0.179312	0.0622897	-0.120766	-0.0736361	-0.279602	0.165909	0.590634	1.7257	0.0936624	-0.270451	0.16092	0.679744	1.69942
1.32	-0.0236034	-0.0455434	0.0655907	1.29218	0.912615	-0.258586	0.548878	-0.015635	-0.24797	0.366022	0.0730744	0.0248812	-0.0182283	-0.294549	-0.0882097	-0.327095	0.317445	0.441855	0.575736	-0.0182308	-0.17763	0.0871479	-0.120442	-0.0747149	-0.284679	0.159132	0.584365	1.72485	0.0816956	-0.262018	0.158173	0.6799	1.69808
1.33	-0.0216755	-0.0583756	0.065614	1.3052	0.911475	-0.258982	0.55346	-0.00140895	-0.225281	0.399622	0.0513306	-0.0231313	-0.0182209	-0.300703	-0.103289	-0.313634	0.335161	0.426519	0.553542	-0.0182234	-0.176985	0.112962	-0.119896	-0.0747213	-0.289934	0.152842	0.578053	1.72433	0.0698987	-0.253405	0.156095	0.679225	1.69689
1.34	-0.01916	-0.0718873	0.0657356	1.31818	0.910599	-0.259321	0.556493	0.0139212	-0.204974	0.431914	0.0346362	-0.0688109	-0.0182134	-0.304473	-0.119292	-0.298314	0.357293	0.407545	0.527094	-0.018216	-0.177346	0.139447	-0.119469	-0.0736627	-0.295216	0.147075	0.57182	1.72407	0.0583991	-0.244842	0.155039	0.677693	1.69598
1.35	-0.0160849	-0.0858908	0.0663518	1.33109	0.909998	-0.259624	0.557547	0.0300005	-0.187834	0.462175	0.0239683	-0.110599	-0.018206	-0.305337	-0.136187	-0.28126	0.384368	0.384561	0.496963	-0.0182086	-0.178578	0.166319	-0.119512	-0.0715963	-0.300359	0.141856	0.565773	1.7239	0.0473279	-0.236618	0.15553	0.675324	1.69539
1.36	-0.0125088	-0.1002	0.0678484	1.34391	0.909676	-0.259907	0.556285	0.0464928	-0.174351	0.489677	0.0196366	-0.14745	-0.0181986	-0.302812	-0.153951	-0.262682	0.41675	0.35729	0.463852	-0.0182012	-0.180468	0.193303	-0.120321	-0.068626	-0.305204	0.137192	0.559996	1.7236	0.0368323	-0.229048	0.158191	0.672179	1.69519
1.37	-0.0085173	-0.114619	0.0705481	1.35662	0.909627	-0.260189	0.552502	0.0630719	-0.164711	0.513805	0.0213364	-0.178846	-0.0181912	-0.296529	-0.172501	-0.242843	0.454549	0.325588	0.428481	-0.0181938	-0.182773	0.220119	-0.122095	-0.0648961	-0.309615	0.133063	0.554554	1.72293	0.0270797	-0.222425	0.16362	0.668354	1.69551
1.38	-0.00419771	-0.128934	0.0746539	1.36919	0.909838	-0.260483	0.546154	0.0794055	-0.158809	0.534151	0.0282845	-0.204724	-0.0181837	-0.286278	-0.19164	-0.222037	0.497569	0.289499	0.391486	-0.0181864	-0.18525	0.246451	-0.124886	-0.06058	-0.313493	0.129418	0.549504	1.72172	0.0182494	-0.216972	0.172239	0.663982	1.69656
1.39	0.000349376	-0.142881	0.0802065	1.38159	0.910287	-0.260796	0.537377	0.0951438	-0.156277	0.550581	0.0394016	-0.22536	-0.0181763	-0.272045	-0.211	-0.200585	0.545289	0.249324	0.353348	-0.0181789	-0.187683	0.271931	-0.128583	-0.0558689	-0.316783	0.126178	0.544904	1.71988	0.0105118	-0.212813	0.18417	0.659235	1.69873
1.4	0.00499303	-0.156123	0.0870632	1.3938	0.910952	-0.261132	0.526481	0.10991	-0.15652	0.563255	0.0535013	-0.241239	-0.0181689	-0.253999	-0.23003	-0.178833	0.596885	0.205692	0.31437	-0.0181715	-0.1899	0.296116	-0.132918	-0.0509574	-0.319471	0.123239	0.540831	1.71744	0.00399844	-0.209944	0.199136	0.654328	1.70249
1.41	0.00955946	-0.168252	0.0949057	1.40581	0.911804	-0.261483	0.513923	0.123303	-0.15877	0.572597	0.0694518	-0.25295	-0.0181614	-0.232466	-0.248002	-0.157158	0.651295	0.159617	0.274698	-0.0181641	-0.191772	0.318486	-0.137499	-0.0460296	-0.321572	0.120484	0.537384	1.71452	-0.00122803	-0.208246	0.216454	0.649506	1.70841
1.42	0.0138396	-0.17881	0.103284	1.41758	0.912816	-0.261837	0.500245	0.134926	-0.162163	0.579204	0.0862887	-0.26111	-0.018154	-0.207893	-0.264085	-0.135962	0.707302	0.112516	0.234389	-0.0181567	-0.193213	0.338474	-0.141871	-0.0412451	-0.323122	0.117796	0.534678	1.71136	-0.00519597	-0.207504	0.235094	0.645036	1.71697
1.43	0.0176373	-0.187368	0.111699	1.42911	0.913967	-0.262178	0.485961	0.14445	-0.165842	0.583718	0.103267	-0.266326	-0.0181466	-0.180834	-0.277478	-0.115657	0.763623	0.0661593	0.193512	-0.0181493	-0.194194	0.355553	-0.145591	-0.0367277	-0.324161	0.115086	0.532839	1.7082	-0.0080303	-0.207447	0.25382	0.641179	1.7285
1.44	0.0208804	-0.193646	0.119734	1.4404	0.915251	-0.262488	0.471361	0.151726	-0.169108	0.586647	0.119853	-0.269169	-0.0181391	-0.152003	-0.287625	-0.0966351	0.818979	0.0225371	0.152275	-0.0181419	-0.194808	0.369384	-0.148322	-0.032557	-0.324737	0.112308	0.531982	1.70525	-0.00993932	-0.207791	0.271372	0.638159	1.74302
1.45	0.0236395	-0.197558	0.127112	1.45145	0.916672	-0.262757	0.456468	0.156805	-0.171491	0.588287	0.135703	-0.27015	-0.0181317	-0.12221	-0.29428	-0.0792242	0.872176	-0.0163493	0.111064	-0.0181344	-0.195255	0.379872	-0.149868	-0.0287617	-0.324904	0.109491	0.532188	1.70267	-0.0111835	-0.208281	0.286656	0.636132	1.76016
1.46	0.0260908	-0.199194	0.1337	1.46229	0.918243	-0.26298	0.441093	0.159898	-0.172766	0.588718	0.150633	-0.269684	-0.0181243	-0.0922652	-0.297495	-0.0636519	0.922185	-0.0487382	0.0704249	-0.018127	-0.195796	0.387143	-0.150185	-0.0253179	-0.324717	0.106743	0.533493	1.7005	-0.012035	-0.208724	0.298901	0.635169	1.77917
1.47	0.0284529	-0.198783	0.139487	1.47294	0.919961	-0.263153	0.424936	0.161316	-0.17293	0.587854	0.164578	-0.268058	-0.0181169	-0.0628591	-0.297544	-0.0500259	0.968195	-0.0733518	0.031004	-0.0181196	-0.196686	0.391484	-0.149343	-0.0221534	-0.324237	0.104258	0.535873	1.69864	-0.0127384	-0.209011	0.307742	0.63525	1.79895
